<?xml version="1.0" standalone="no"?>
<!DOCTYPE svg PUBLIC "-//W3C//DTD SVG 20010904//EN"
 "http://www.w3.org/TR/2001/REC-SVG-20010904/DTD/svg10.dtd">
<svg version="1.0" xmlns="http://www.w3.org/2000/svg"
 width="421.000000pt" height="421.000000pt" viewBox="0 0 421.000000 421.000000"
 preserveAspectRatio="xMidYMid meet">

<g transform="translate(0.000000,421.000000) scale(0.100000,-0.100000)"
fill="#000000" stroke="none">
<path d="M1330 4189 c-194 -49 -384 -130 -530 -226 -172 -113 -351 -286 -473
-455 -70 -99 -184 -327 -226 -453 -65 -201 -76 -277 -76 -540 1 -211 4 -253
23 -345 31 -141 82 -291 136 -399 l45 -89 -20 -39 c-41 -76 -2 -241 73 -310
41 -38 118 -66 198 -71 74 -5 76 -6 134 -58 117 -106 309 -221 494 -295 45
-18 82 -37 82 -43 0 -12 -68 -134 -79 -140 -4 -3 -47 -10 -94 -15 -99 -11
-141 -27 -181 -67 -55 -55 -80 -149 -57 -208 6 -16 -5 -28 -63 -67 -89 -60
-121 -90 -157 -147 -37 -58 -40 -137 -8 -188 l21 -34 652 0 653 0 11 23 c6 12
12 33 14 47 l3 25 235 10 c129 6 241 14 248 18 7 5 22 27 34 50 69 136 -25
318 -187 362 -52 14 -89 17 -202 12 -76 -3 -149 -9 -163 -12 -24 -6 -25 -4
-26 39 -2 53 -34 110 -75 131 -28 15 -28 17 -16 48 l13 32 103 7 c227 15 463
82 669 188 l114 59 50 -40 c27 -21 56 -42 62 -47 9 -5 11 -23 7 -63 -13 -109
22 -169 99 -169 37 0 38 -1 50 -49 8 -33 25 -63 50 -91 21 -23 42 -59 48 -82
10 -40 9 -44 -24 -80 -40 -45 -42 -61 -9 -93 36 -37 83 -34 124 9 32 33 36 34
124 38 109 5 167 30 199 84 12 21 39 44 68 59 48 24 84 60 95 95 3 10 19 23
36 30 17 7 42 29 57 48 23 31 27 45 27 106 0 39 -4 78 -8 87 -7 14 -1 19 28
29 20 7 69 34 110 61 124 83 240 223 317 385 43 88 43 90 43 200 0 101 -2 113
-25 147 -34 51 -111 88 -182 88 -171 0 -373 -174 -503 -434 -25 -48 -50 -106
-56 -128 -12 -38 -14 -39 -43 -32 -17 4 -59 8 -93 8 -55 -1 -63 1 -63 18 0 10
-13 32 -29 48 -26 25 -37 29 -88 29 -50 0 -66 -5 -109 -34 -39 -26 -54 -32
-68 -24 -15 9 -9 19 56 86 277 287 439 672 463 1102 18 320 -74 691 -243 975
-89 150 -248 332 -392 448 -187 151 -418 268 -648 328 l-113 29 -332 -1 c-292
-1 -341 -3 -407 -20z m648 -95 c286 -42 599 -185 818 -374 246 -212 448 -558
513 -877 48 -232 47 -475 -1 -678 l-21 -90 -14 80 c-22 128 -84 207 -177 222
-36 6 -36 5 -36 -29 0 -53 -27 -121 -67 -167 -38 -45 -117 -91 -156 -91 -39 0
-92 27 -120 59 -27 32 -32 31 -53 -14 -7 -16 -29 -51 -48 -78 -48 -66 -95
-193 -108 -293 l-11 -84 -33 -6 c-77 -14 -250 24 -366 81 -38 19 -99 58 -133
85 -73 58 -68 61 -84 -63 -15 -108 -14 -189 4 -290 27 -154 87 -267 177 -334
l51 -37 78 12 c147 21 334 98 467 192 65 45 72 53 60 68 -11 15 -11 15 3 5 12
-10 19 -10 35 1 10 7 45 21 77 31 32 10 83 36 114 57 l56 39 -34 -43 c-195
-250 -556 -463 -914 -538 -113 -23 -362 -36 -464 -23 l-64 8 -18 55 c-41 125
-179 157 -262 60 l-33 -39 -53 19 c-127 49 -290 142 -400 230 l-55 43 25 16
c30 20 96 79 175 157 137 135 165 295 82 464 -21 43 -33 83 -35 120 -5 72 -29
118 -80 154 -34 24 -52 29 -100 29 -32 0 -61 5 -65 11 -14 20 -8 96 8 121 17
25 56 41 193 75 100 25 145 47 186 89 25 27 30 41 33 99 3 57 0 72 -20 101
-77 113 -276 100 -540 -36 -229 -117 -296 -339 -179 -588 28 -60 28 -62 10
-86 -26 -34 -42 -102 -35 -142 4 -19 18 -47 31 -61 24 -26 24 -28 9 -57 -10
-20 -20 -29 -30 -25 -9 3 -20 6 -25 6 -4 0 -27 38 -49 84 -148 312 -193 691
-120 1027 84 387 338 768 655 981 202 136 430 226 661 262 123 19 353 19 482
0z m-1040 -1380 c3 -18 -12 -26 -115 -64 -65 -23 -148 -55 -185 -71 -55 -24
-72 -28 -89 -19 -13 7 -19 19 -17 33 4 27 72 63 213 112 118 41 188 44 193 9z
m-292 -288 c3 -7 -2 -37 -12 -65 -16 -50 -14 -85 10 -141 5 -11 -3 -19 -27
-28 -46 -17 -46 -16 -63 23 -26 64 -15 165 23 207 19 21 61 24 69 4z m172
-287 c37 -13 62 -48 62 -89 0 -29 -2 -30 -44 -30 -25 0 -57 -5 -73 -12 -27
-11 -27 -12 24 -18 43 -4 60 -12 92 -44 53 -52 84 -125 85 -201 1 -48 -5 -73
-31 -125 -17 -36 -43 -78 -57 -95 -26 -30 -26 -30 -22 -5 3 14 8 52 11 85 l6
60 -25 -28 c-14 -15 -30 -46 -37 -70 -32 -121 -68 -174 -132 -196 -34 -12 -34
-21 7 97 27 76 33 122 17 122 -15 0 -47 -51 -61 -95 -17 -57 -56 -113 -93
-135 -38 -24 -113 -26 -161 -6 -89 37 -144 183 -101 266 26 49 96 55 101 9 1
-15 9 -40 17 -56 14 -26 14 -30 -9 -56 -39 -45 -25 -79 17 -41 10 9 44 24 76
34 56 17 57 19 32 28 -42 17 -59 49 -59 114 0 79 33 161 88 220 51 55 41 61
-33 19 l-52 -30 -12 25 c-20 45 -13 90 19 127 34 39 129 92 210 118 65 21 96
23 138 8z m3271 -461 c27 -28 35 -73 29 -158 -6 -75 -40 -159 -104 -256 -34
-52 -39 -55 -68 -50 -26 5 -36 0 -73 -36 l-43 -42 22 -23 21 -23 -36 -15 c-45
-19 -68 -19 -93 0 -18 13 -15 18 64 91 157 145 244 307 246 456 1 43 4 78 8
78 4 0 16 -10 27 -22z m-216 -66 c16 -14 15 -17 -15 -43 -31 -25 -34 -26 -51
-11 -23 20 -37 12 -91 -51 -39 -46 -39 -47 -21 -68 17 -18 17 -23 5 -42 -39
-61 -92 -179 -102 -229 -13 -61 -26 -71 -62 -45 -17 12 -18 20 -8 73 24 137
90 254 208 372 78 78 93 83 137 44z m117 -31 c0 -22 -50 -154 -73 -194 -69
-117 -148 -202 -226 -242 l-34 -17 7 33 c20 105 143 293 249 380 57 48 77 58
77 40z m-842 -377 l23 -16 -31 -35 c-17 -19 -29 -37 -26 -40 3 -3 31 5 62 17
71 29 135 30 172 4 85 -62 98 -236 24 -316 -25 -27 -64 -36 -89 -20 -23 14
-33 62 -26 124 7 72 -7 73 -37 2 -17 -39 -23 -44 -52 -44 -18 0 -48 4 -66 9
-28 9 -32 7 -32 -10 0 -28 52 -78 89 -85 17 -4 31 -12 31 -19 0 -24 -56 -83
-104 -108 l-48 -26 -19 22 c-25 29 -49 110 -49 164 0 49 -10 55 -30 18 -15
-29 -41 -32 -65 -8 -40 39 10 199 91 292 33 38 119 91 149 91 6 0 21 -7 33
-16z m464 -188 c9 -11 13 -23 7 -24 -13 -5 -71 30 -77 46 -7 21 50 3 70 -22z
m-2148 -22 c12 -32 5 -81 -24 -163 -33 -97 -48 -116 -83 -107 -36 9 -39 29
-12 90 13 30 31 80 40 112 9 33 18 65 20 72 6 17 52 15 59 -4z m2190 -211
c-17 -69 -115 -105 -199 -73 l-27 10 22 33 c12 17 29 49 37 70 18 42 43 53 97
43 23 -4 37 -2 42 6 5 8 12 1 23 -20 11 -24 12 -41 5 -69z m-2144 7 c0 -5 -9
-10 -20 -10 -11 0 -20 5 -20 10 0 6 9 10 20 10 11 0 20 -4 20 -10z m-77 -120
c-9 -22 -22 -40 -30 -40 -7 0 -13 2 -13 5 0 14 31 64 42 68 7 3 14 6 15 6 1 1
-6 -17 -14 -39z m1917 -5 c14 -13 45 -30 70 -38 55 -18 60 -31 19 -46 -70 -24
-166 -5 -189 39 -6 12 -8 34 -5 52 7 28 9 29 43 23 21 -4 48 -17 62 -30z
m-2320 -65 c-27 -53 -26 -95 4 -125 34 -34 92 -47 155 -35 85 16 129 46 150
103 22 56 68 -4 56 -73 -9 -55 -21 -65 -105 -90 -41 -12 -101 -36 -135 -52
-69 -35 -149 -88 -142 -94 2 -3 51 13 108 34 185 69 262 86 384 87 100 0 115
-3 167 -28 66 -32 103 -72 118 -125 12 -43 13 -102 2 -119 -19 -31 -73 -34
-598 -40 l-532 -6 -26 26 c-18 18 -26 37 -26 62 0 66 30 104 153 189 l67 48
43 -21 c23 -11 58 -24 76 -27 l34 -7 -47 44 c-64 58 -90 110 -83 166 2 24 12
52 22 63 27 30 96 60 138 60 l37 0 -20 -40z m706 19 c12 -14 18 -36 19 -71 l0
-50 -80 -30 c-44 -17 -103 -33 -131 -35 l-51 -5 0 46 0 46 40 0 c58 0 106 27
136 77 29 48 40 52 67 22z m1417 -65 c22 -28 109 -74 142 -74 11 0 26 -4 34
-9 11 -7 3 -12 -29 -21 -83 -22 -190 28 -190 90 0 25 7 40 18 40 2 0 13 -12
25 -26z m-969 -88 c60 -18 109 -56 130 -99 20 -44 22 -150 2 -166 -9 -8 -83
-14 -210 -18 -165 -5 -196 -4 -196 8 0 28 -59 135 -91 166 -19 17 -54 40 -78
50 l-44 19 77 23 c140 42 305 48 410 17z"/>
</g>
</svg>
